<mxfile agent="5.0 (Windows NT 10.0; Win64; x64) AppleWebKit/537.36 (KHTML, like Gecko) draw.io/13.2.2 Chrome/83.0.4103.100 Electron/9.0.3 Safari/537.36" compressed="false" etag="bYsXQEBpe86CtkmkOr99" host="Electron" modified="2020-06-22T08:29:28.763Z" type="device" version="13.2.2">
  <diagram id="Page-1" name="Page-1">
    <mxGraphModel arrows="1" connect="1" dx="852" dy="494" fold="1" grid="1" gridSize="10" guides="1" math="0" page="0" pageHeight="1169" pageScale="1" pageWidth="827" shadow="1" tooltips="1">
      <root>
        <mxCell id="0" />
        <mxCell id="1" parent="0" />
        <object id="node-1" label="node-1">
          <mxCell parent="1" style="rounded=1;whiteSpace=wrap;html=1;" vertex="1">
            <mxGeometry as="geometry" height="60" width="120" x="567" y="319" />
          </mxCell>
        </object>
        <object id="node-2" label="node-2">
          <mxCell parent="1" style="rounded=1;whiteSpace=wrap;html=1;" vertex="1">
            <mxGeometry as="geometry" height="60" width="120" x="453" y="300" />
          </mxCell>
        </object>
        <object id="node-3" label="node-3">
          <mxCell parent="1" style="rounded=1;whiteSpace=wrap;html=1;" vertex="1">
            <mxGeometry as="geometry" height="60" width="120" x="284" y="451" />
          </mxCell>
        </object>
        <object a="b" c="d" id="node-4" label="node-4" link="http://google.com">
          <mxCell parent="1" style="rounded=1;whiteSpace=wrap;html=1;" vertex="1">
            <mxGeometry as="geometry" height="60" width="120" x="667" y="306" />
          </mxCell>
        </object>
        <object id="98b6238be5acd1302f49c499f9173e32" label="bla1">
          <mxCell edge="1" parent="1" source="node-1" style="endArrow=none;" target="node-2">
            <mxGeometry as="geometry" relative="1" />
          </mxCell>
        </object>
        <object id="c0b00b2fdeaaa6f41cab0ef2448ffcef" label="bla2">
          <mxCell edge="1" parent="1" source="node-2" style="endArrow=none;" target="node-3">
            <mxGeometry as="geometry" relative="1" />
          </mxCell>
        </object>
        <object id="c8fe43e5ad1ce2c05bfc0b371d1fb987" label="bla3">
          <mxCell edge="1" parent="1" source="node-3" style="endArrow=none;" target="node-1">
            <mxGeometry as="geometry" relative="1" />
          </mxCell>
        </object>
        <object id="3972a5fc4a57b84e0376216959d97b1c" label="bla4">
          <mxCell edge="1" parent="1" source="node-4" style="endArrow=none;" target="node-3">
            <mxGeometry as="geometry" relative="1" />
          </mxCell>
        </object>
        <object id="node-55" label="node-55">
          <mxCell parent="1" style="shape=mxgraph.cisco.routers.atm_router;html=1;pointerEvents=1;dashed=0;fillColor=#036897;strokeColor=#ffffff;strokeWidth=2;verticalLabelPosition=bottom;verticalAlign=top;align=center;outlineConnect=0;" vertex="1">
            <mxGeometry as="geometry" height="53" width="78" x="581" y="439" />
          </mxCell>
        </object>
        <object id="80ae0df67df27c592ace3f870f67e3d6" label="">
          <mxCell edge="1" parent="1" source="node-55" style="endArrow=none;" target="node-2">
            <mxGeometry as="geometry" relative="1" />
          </mxCell>
        </object>
      <object id="Router-1" label="Router-1">
      <mxCell parent="1" style="shape=mxgraph.cisco.routers.atm_router;html=1;pointerEvents=1;dashed=0;fillColor=#036897;strokeColor=#ffffff;strokeWidth=2;verticalLabelPosition=bottom;verticalAlign=top;align=center;outlineConnect=0;" vertex="1">
          <mxGeometry as="geometry" height="53" width="78" x="584" y="216" />
      </mxCell>
    </object><object id="Router-2" label="Router-2">
      <mxCell parent="1" style="shape=mxgraph.cisco.routers.atm_router;html=1;pointerEvents=1;dashed=0;fillColor=#036897;strokeColor=#ffffff;strokeWidth=2;verticalLabelPosition=bottom;verticalAlign=top;align=center;outlineConnect=0;" vertex="1">
          <mxGeometry as="geometry" height="53" width="78" x="616" y="77" />
      </mxCell>
    </object><object id="Router-3" label="Router-3">
      <mxCell parent="1" style="shape=mxgraph.cisco.routers.atm_router;html=1;pointerEvents=1;dashed=0;fillColor=#036897;strokeColor=#ffffff;strokeWidth=2;verticalLabelPosition=bottom;verticalAlign=top;align=center;outlineConnect=0;" vertex="1">
          <mxGeometry as="geometry" height="53" width="78" x="353" y="485" />
      </mxCell>
    </object><object id="Switch-1" label="Switch-1">
      <mxCell parent="1" style="shape=mxgraph.cisco.routers.atm_tag_switch_router;html=1;pointerEvents=1;dashed=0;fillColor=#036897;strokeColor=#ffffff;strokeWidth=2;verticalLabelPosition=bottom;verticalAlign=top;align=center;outlineConnect=0;" vertex="1">
          <mxGeometry as="geometry" height="82" width="64" x="636" y="383" />
      </mxCell>
    </object><object id="Building-1" label="Building-1">
      <mxCell parent="1" style="shape=mxgraph.cisco.buildings.generic_building;html=1;pointerEvents=1;dashed=0;fillColor=#036897;strokeColor=#ffffff;strokeWidth=2;verticalLabelPosition=bottom;verticalAlign=top;align=center;outlineConnect=0;" vertex="1">
          <mxGeometry as="geometry" height="136" width="90" x="511" y="486" />
      </mxCell>
    </object><object id="49e98963004852a212ec42995c9ca622" label="">
      <mxCell edge="1" parent="1" source="Router-1" style="endArrow=none;" target="Router-2">
          <mxGeometry as="geometry" relative="1" />
      </mxCell>
    </object><object id="d242cc9b2d272142e0961e59d340f46c" label="">
      <mxCell edge="1" parent="1" source="Router-1" style="endArrow=none;" target="Router-3">
          <mxGeometry as="geometry" relative="1" />
      </mxCell>
    </object><object id="a372e67a60ae1ab4d7c2c8d4c8ff84ec" label="">
      <mxCell edge="1" parent="1" source="Router-1" style="endArrow=none;" target="node-2">
          <mxGeometry as="geometry" relative="1" />
      </mxCell>
    </object><object id="bf65e5ec0978b5ad3700225c5005a944" label="">
      <mxCell edge="1" parent="1" source="Switch-1" style="endArrow=none;" target="Router-3">
          <mxGeometry as="geometry" relative="1" />
      </mxCell>
    </object><object id="cf501f48889c91932d62f6b798ef03b6" label="">
      <mxCell edge="1" parent="1" source="Building-1" style="endArrow=none;" target="Router-3">
          <mxGeometry as="geometry" relative="1" />
      </mxCell>
    </object></root>
    </mxGraphModel>
  </diagram>
</mxfile>